<svg
   xmlns:dc="http://purl.org/dc/elements/1.1/"
   xmlns:cc="http://creativecommons.org/ns#"
   xmlns:rdf="http://www.w3.org/1999/02/22-rdf-syntax-ns#"
   xmlns:svg="http://www.w3.org/2000/svg"
   xmlns="http://www.w3.org/2000/svg"
   xmlns:sodipodi="http://sodipodi.sourceforge.net/DTD/sodipodi-0.dtd"
   xmlns:inkscape="http://www.inkscape.org/namespaces/inkscape"
   viewBox="0 0 277.05444 8.1567116"
   version="1.1"
   id="svg5580"
   inkscape:version="0.92.1 r15371"
   sodipodi:docname="footer.svg">
  <defs
     id="defs5574" />
  <sodipodi:namedview
     id="base"
     pagecolor="#ffffff"
     bordercolor="#666666"
     borderopacity="1.0"
     inkscape:pageopacity="0.0"
     inkscape:pageshadow="2"
     inkscape:zoom="0.35"
     inkscape:cx="92.138908"
     inkscape:cy="258.27141"
     inkscape:document-units="mm"
     inkscape:current-layer="layer1"
     showgrid="false"
     fit-margin-top="0"
     fit-margin-left="0"
     fit-margin-right="0"
     fit-margin-bottom="0"
     inkscape:window-width="1877"
     inkscape:window-height="1012"
     inkscape:window-x="43"
     inkscape:window-y="31"
     inkscape:window-maximized="1" />
  <metadata
     id="metadata5577">
    <rdf:RDF>
      <cc:Work
         rdf:about="">
        <dc:format>image/svg+xml</dc:format>
        <dc:type
           rdf:resource="http://purl.org/dc/dcmitype/StillImage" />
        <dc:title></dc:title>
      </cc:Work>
    </rdf:RDF>
  </metadata>
  <g
     inkscape:label="Camada 1"
     inkscape:groupmode="layer"
     id="layer1"
     transform="translate(109.04509,-209.01093)">
    <g
       transform="translate(-224.8167,-198.92957)"
       style="display:inline"
       id="g5551"
       inkscape:export-xdpi="100"
       inkscape:export-ydpi="100">
      <path
         inkscape:connector-curvature="0"
         inkscape:export-ydpi="100"
         inkscape:export-xdpi="100"
         inkscape:export-filename="/dados/trampos/joana/estudos/modelos/v3/modelo_A3.png"
         id="path1123"
         d="m 392.09311,397.43345 c 0.0406,2.63779 -2.46968,2.32048 -4.53058,2.42935 -7.17354,0.0647 -11.29841,0.51338 -16.35278,0.17073 -6.86431,-0.2764 -19.38611,-0.29075 -28.10851,0.5692"
         style="display:inline;fill:none;stroke:#000000;stroke-width:1.46500003;stroke-linecap:round;stroke-linejoin:round;stroke-miterlimit:4;stroke-dasharray:none;stroke-opacity:1"
         transform="translate(0,11.249983)" />
      <path
         inkscape:connector-curvature="0"
         inkscape:export-ydpi="100"
         inkscape:export-xdpi="100"
         inkscape:export-filename="/dados/trampos/joana/estudos/modelos/v3/modelo_A3.png"
         id="path1125"
         d="m 116.50457,399.30433 c -0.0406,2.63779 2.46968,2.32048 4.53058,2.42935 7.17354,0.0647 11.29841,0.51338 16.35278,0.17073 6.86431,-0.2764 10.79046,-0.83355 19.51286,0.0264"
         style="display:inline;fill:none;stroke:#000000;stroke-width:1.46500003;stroke-linecap:round;stroke-linejoin:round;stroke-miterlimit:4;stroke-dasharray:none;stroke-opacity:1"
         transform="translate(0,11.249983)" />
      <path
         inkscape:export-ydpi="100"
         inkscape:export-xdpi="100"
         inkscape:export-filename="/dados/trampos/joana/estudos/modelos/v3/modelo_A3.png"
         style="display:inline;fill:none;stroke:#000000;stroke-width:1.46500003;stroke-linecap:round;stroke-linejoin:round;stroke-miterlimit:4;stroke-dasharray:none;stroke-opacity:1"
         d="m 196.52047,401.3157 c 6.5466,0.29082 19.35778,0.92125 34.55487,0.67308 34.53825,-0.56399 87.15228,-1.76587 100.80744,-0.75062"
         id="path1128"
         inkscape:connector-curvature="0"
         sodipodi:nodetypes="csc"
         transform="translate(0,11.249983)" />
      <g
         inkscape:export-ydpi="100"
         inkscape:export-xdpi="100"
         inkscape:export-filename="/dados/trampos/joana/estudos/modelos/v3/modelo_A3.png"
         id="g5162"
         transform="matrix(0.02107599,0,0,0.02107599,322.76505,422.43524)"
         style="display:inline">
        <path
           id="path3931"
           d="m 797.07928,-351.24058 h -220.02999 -5.00077 v -5.02193 -247.29686 -5.02094 h 5.00077 220.02999 5.00068 v 5.02094 247.29686 5.02193 z m -215.0294,-10.04297 H 792.0786 V -598.53806 H 582.04988 Z"
           style="fill:#000000;fill-opacity:1;fill-rule:nonzero;stroke:none"
           inkscape:connector-curvature="0" />
        <path
           id="path3933"
           d="m 622.0554,-646.23979 c 47.50651,10.04252 102.51398,26.36156 96.26302,79.08514 -43.75583,117.99982 50.00698,-100.42558 70.0097,-84.10662 16.25223,48.95757 36.25495,60.25503 12.50165,106.702 -56.25767,75.31922 15.00204,36.40354 46.25631,121.76511 -8.75117,40.17009 -11.25146,13.80852 -27.50378,-6.27652 -31.25418,-1.25548 -65.00875,6.27652 -98.76349,-18.82866 -6.25079,6.27652 -1.25011,38.9137 -3.75049,52.72223 -40.00544,111.72277 -26.25359,45.19112 -73.76009,-22.59601 -28.75389,-79.08415 117.5161,-76.57408 -11.25147,-79.08415 -12.50174,-1.25549 -116.26591,3.76555 -96.2631,-20.08505 81.26106,0 28.75388,-91.63799 143.76952,-15.06418 -7.50098,-22.59547 -58.75797,-112.97834 -57.50778,-114.23329 z"
           style="fill:#000000;fill-opacity:1;fill-rule:evenodd;stroke:none"
           inkscape:connector-curvature="0" />
        <path
           id="path3935"
           d="m 638.30764,-632.43127 c 78.76068,26.36148 81.26106,37.65939 56.25766,104.19086 -16.25223,-36.40381 -33.75456,-65.27625 -58.75805,-101.68043 0,-1.25548 1.2501,-2.51043 2.50039,-2.51043 z"
           style="fill:#fdc800;fill-opacity:1;fill-rule:evenodd;stroke:none"
           inkscape:connector-curvature="0" />
        <path
           id="path3937"
           d="m 600.80249,-552.09145 c 37.50515,-8.78704 135.01845,51.46773 16.25223,45.1921 -58.75805,-10.04297 -52.50718,-1.25638 -16.25223,-45.1921 z"
           style="fill:#fdc800;fill-opacity:1;fill-rule:evenodd;stroke:none"
           inkscape:connector-curvature="0" />
        <path
           id="path3939"
           d="m 773.32599,-621.13389 c 41.25563,-8.78695 42.50582,133.0641 -62.50845,119.25558 -5.00077,-6.27742 51.2569,-105.44715 62.50845,-119.25558 z"
           style="fill:#fdc800;fill-opacity:1;fill-rule:evenodd;stroke:none"
           inkscape:connector-curvature="0" />
        <path
           id="path3941"
           d="m 668.31162,-473.77091 c 61.25844,-31.38367 36.25495,86.61598 22.50311,105.44554 -38.75525,-55.2341 -62.50854,-65.27617 -22.50311,-105.44554 z"
           style="fill:#fdc800;fill-opacity:1;fill-rule:evenodd;stroke:none"
           inkscape:connector-curvature="0" />
        <path
           id="path3943"
           d="m 705.81677,-488.06979 c 75.01028,22.5953 46.2564,-43.93671 122.5167,46.44697 -15.00195,13.80762 -152.52078,-21.34071 -122.5167,-46.44697 z"
           style="fill:#fdc800;fill-opacity:1;fill-rule:evenodd;stroke:none"
           inkscape:connector-curvature="0" />
      </g>
      <path
         inkscape:export-ydpi="100"
         inkscape:export-xdpi="100"
         inkscape:export-filename="/dados/trampos/joana/estudos/modelos/v3/modelo_A3.png"
         inkscape:connector-curvature="0"
         id="path6561"
         d="m 166.33559,415.92313 c -0.22967,-0.21872 -0.49296,-0.7181 -0.50644,-0.96052 -0.0221,-0.40447 0.47182,-0.88121 0.97869,-0.94394 0.15506,-0.0192 0.20975,-0.0617 0.21286,-0.16575 0.0122,-0.40978 -0.003,-0.64663 -0.0582,-0.89146 -0.0337,-0.1493 -0.0897,-0.46272 -0.12472,-0.69647 -0.035,-0.23376 -0.0807,-0.46397 -0.1016,-0.51159 -0.0568,-0.12956 0.12082,-0.35911 0.24595,-0.31773 0.20871,0.0691 0.40674,2.40115 0.27978,3.29496 -0.0377,0.26584 -0.0904,0.51524 -0.11695,0.55421 -0.0265,0.039 -0.0643,0.16775 -0.0837,0.28618 -0.0426,0.25837 -0.24772,0.5182 -0.41537,0.52611 -0.0668,0.003 -0.20633,-0.0752 -0.31014,-0.17401 z m 0.48569,-0.61613 c 0.055,-0.13082 0.11577,-0.35746 0.13509,-0.50362 0.0193,-0.14618 0.0617,-0.30286 0.0942,-0.34818 0.12566,-0.17526 -0.10334,-0.15983 -0.38905,0.0264 -0.47245,0.30764 -0.53982,0.57953 -0.21906,0.88422 0.10611,0.10079 0.21227,0.18236 0.23588,0.18124 0.0237,-10e-4 0.088,-0.10905 0.14294,-0.23987 z m -3.88104,-0.29453 c -0.48098,-0.0946 -1.10467,-0.55529 -1.13787,-0.84049 -0.0602,-0.51707 -0.0576,-0.72557 0.0124,-1.00224 0.0435,-0.17179 0.0904,-0.39005 0.10413,-0.485 0.11845,-0.816 0.54789,-1.32324 1.68427,-1.9894 0.48511,-0.28438 0.63721,-0.3051 0.64743,-0.0882 0.006,0.13356 0.0707,0.17385 0.41427,0.25938 0.38353,0.0955 0.41251,0.1174 0.50678,0.38348 0.38177,1.07766 0.2731,2.557 -0.2269,3.08845 -0.36759,0.39071 -0.49602,0.49808 -0.71892,0.60095 -0.26464,0.12217 -0.8631,0.15617 -1.28562,0.0731 z m 1.36302,-0.68033 c 0.30034,-0.2048 0.48845,-0.45838 0.53966,-0.7275 0.0212,-0.11119 0.0643,-0.23862 0.096,-0.2832 0.13529,-0.19047 0.0167,-1.29917 -0.17644,-1.64939 -0.0961,-0.17426 -0.14247,-0.20482 -0.54725,-0.36063 -0.48279,-0.18585 -0.73308,-0.0987 -1.38333,0.4818 -0.59364,0.52994 -0.9083,1.88581 -0.52735,2.27236 0.47956,0.48662 1.48028,0.62007 1.9987,0.26656 z m -1.29958,-0.18357 c -0.43896,-0.17491 -0.57358,-0.6257 -0.39874,-1.33524 0.10116,-0.41059 0.19901,-0.54469 0.65318,-0.89523 0.25081,-0.19357 0.36038,-0.24285 0.41978,-0.1888 0.16838,0.15323 0.0279,0.52829 -0.20123,0.53909 -0.20705,0.01 -0.37146,0.15301 -0.49879,0.4346 -0.15713,0.34752 -0.14866,0.5166 0.0403,0.79146 0.1754,0.256 0.41603,0.31769 0.89326,0.22899 0.30114,-0.0559 0.33185,-0.0485 0.37546,0.091 0.0637,0.20391 0.0292,0.24889 -0.26503,0.34575 -0.36852,0.1213 -0.69316,0.11756 -1.01754,-0.0116 z m 25.42187,-0.29074 c -0.086,-0.0133 -0.14034,-0.0531 -0.12064,-0.0886 0.0197,-0.0356 -0.007,-0.0455 -0.0611,-0.022 -0.12576,0.0552 -0.60959,-0.3302 -0.61719,-0.4916 -0.005,-0.10295 -0.0545,-0.11817 -0.29577,-0.0907 -0.15947,0.0181 -0.31344,0.0381 -0.34215,0.0444 -0.0287,0.006 -0.0316,0.0801 -0.006,0.16413 0.0307,0.10206 -2.4e-4,0.20738 -0.0931,0.31707 -0.11225,0.13246 -0.1814,0.15706 -0.3574,0.12708 -0.26025,-0.0443 -0.56416,-0.25155 -0.67656,-0.46131 -0.0662,-0.12357 -0.0572,-0.17774 0.0482,-0.29377 0.0712,-0.0782 0.16025,-0.14371 0.19789,-0.14549 0.0863,-0.004 0.0806,-0.15039 -0.0144,-0.36835 l -0.0734,-0.16873 -0.22162,0.22961 c -0.12188,0.12629 -0.32997,0.32272 -0.46241,0.43653 -0.13245,0.1138 -0.223,0.2329 -0.20124,0.26467 0.063,0.092 -0.14469,0.482 -0.25959,0.48741 -0.0573,0.003 -0.19704,-0.0376 -0.31038,-0.0896 -0.11336,-0.052 -0.22179,-0.0932 -0.24097,-0.0915 -0.24873,0.0217 -0.29916,-0.003 -0.34908,-0.16808 -0.0662,-0.21951 0.0767,-0.3664 0.36992,-0.38022 0.10574,-0.005 0.19163,-0.0218 0.19089,-0.0375 -0.004,-0.0794 -0.30584,-0.64286 -0.34369,-0.64108 -0.0242,0.001 -0.0995,0.0801 -0.16743,0.17531 -0.068,0.0953 -0.18015,0.19419 -0.24934,0.21979 -0.0692,0.0256 -0.15804,0.13601 -0.1974,0.24534 -0.2022,0.5616 -1.10333,1.02408 -1.45802,0.74833 -0.069,-0.0537 -0.24198,-0.0939 -0.38434,-0.0895 -0.14235,0.005 -0.30698,-0.0282 -0.36583,-0.0725 -0.0784,-0.059 -0.14672,-0.0595 -0.25528,-0.002 -0.354,0.18861 -0.58212,0.25136 -1.05309,0.28969 -0.47431,0.0386 -0.51067,0.0311 -0.67548,-0.1434 -0.36376,-0.38467 -0.21012,-1.00851 0.31529,-1.28018 0.38255,-0.19779 0.63971,-0.22371 0.92219,-0.0929 0.11179,0.0518 0.21193,0.0846 0.22251,0.0729 0.0106,-0.0116 -0.0146,-0.2039 -0.0568,-0.42722 -0.0966,-0.51608 -0.0988,-1.1248 -0.005,-1.32266 0.0447,-0.094 0.13826,-0.1564 0.24168,-0.16127 0.15145,-0.007 0.17096,0.0217 0.19112,0.28249 0.0125,0.15973 0.0351,0.35157 0.0506,0.42629 0.0979,0.47145 0.14025,1.11518 0.0838,1.27492 -0.055,0.15588 -0.0356,0.2269 0.1254,0.45707 0.20409,0.29188 0.32632,0.33143 0.46312,0.14984 0.10042,-0.13326 0.12323,-0.23309 0.149,-0.65167 0.0203,-0.33005 0.26282,-0.69826 0.46618,-0.70784 0.0607,-0.003 0.14158,-0.0395 0.1797,-0.0814 0.0382,-0.0419 0.16583,-0.0835 0.28377,-0.0924 0.24805,-0.0187 0.46508,0.16946 0.54736,0.47471 0.0293,0.10868 0.0683,0.19691 0.0865,0.19605 0.13474,-0.006 0.28649,-0.19112 0.37297,-0.45412 0.16266,-0.49459 0.38483,-0.52255 0.48535,-0.0611 0.0331,0.15189 0.12454,0.43292 0.20327,0.62451 0.17575,0.42775 0.29706,0.42958 0.75133,0.0113 0.28275,-0.26032 0.31375,-0.3205 0.32929,-0.63943 0.0179,-0.36744 0.10687,-0.49162 0.33884,-0.473 0.0995,0.008 0.13725,0.0587 0.1361,0.18259 -0.002,0.24301 0.13543,0.8196 0.24302,1.01736 0.18369,0.3378 0.28589,0.40272 0.54543,0.34649 0.42287,-0.0916 0.47986,-0.12525 0.47288,-0.27908 -0.0111,-0.24446 0.2221,-0.59088 0.5075,-0.75383 0.34637,-0.19779 0.51424,-0.20082 0.7206,-0.013 0.31264,0.28449 0.10471,0.80711 -0.41862,1.05233 -0.17015,0.0797 -0.30749,0.16335 -0.30524,0.18585 0.01,0.10309 0.21156,0.27284 0.39641,0.3345 0.43017,0.14348 1.62582,-0.038 1.88673,-0.28639 0.1514,-0.14412 0.38621,-0.17192 0.43885,-0.0519 0.0225,0.0515 -0.011,0.20249 -0.0748,0.33546 -0.0957,0.1997 -0.15772,0.24577 -0.35639,0.26483 -0.35203,0.0337 -0.42682,0.0503 -0.61169,0.13499 -0.17151,0.0786 -1.00361,0.1443 -1.28304,0.10131 z m -5.46729,-0.65296 c 0.1259,-0.0882 0.0856,-0.11604 -0.21379,-0.14776 -0.20535,-0.0217 -0.24491,-0.005 -0.24799,0.10489 -0.002,0.0987 0.0413,0.12837 0.18021,0.12103 0.10115,-0.005 0.22785,-0.0405 0.28157,-0.0781 z m -2.38156,-0.002 0.21032,-0.12165 -0.16528,-0.1214 c -0.0909,-0.0668 -0.24057,-0.13659 -0.33262,-0.15513 -0.19275,-0.0389 -0.64319,0.13706 -0.67931,0.26529 -0.0182,0.0647 0.0174,0.0685 0.14085,0.0148 0.18611,-0.0809 0.33576,0.004 0.28384,0.1609 -0.0448,0.13561 0.27775,0.11017 0.5422,-0.0428 z m 7.79913,-0.8779 c 0.13905,-0.169 0.0829,-0.2358 -0.14146,-0.16813 -0.19757,0.0596 -0.37405,0.23702 -0.3678,0.36973 0.006,0.12717 0.35119,-0.01 0.50926,-0.2016 z m -5.21277,0.20891 c 0.13643,-0.0599 0.13001,-0.16157 -0.0197,-0.31213 -0.12964,-0.13034 -0.348,-0.145 -0.50538,-0.034 -0.13239,0.0934 -0.002,0.28899 0.22836,0.34183 0.0917,0.021 0.17211,0.0412 0.17862,0.0446 0.006,0.004 0.0597,-0.0147 0.11813,-0.0403 z m -1.97025,-0.44851 c -0.004,-0.0941 -0.0346,-0.16984 -0.067,-0.16832 -0.0324,0.002 -0.0406,0.0791 -0.0182,0.17233 0.0224,0.0933 0.0525,0.16899 0.067,0.1683 0.0144,-6.7e-4 0.0226,-0.0783 0.0182,-0.17231 z m -3.97641,1.80411 c -0.10377,-0.0283 -0.3104,-0.15594 -0.45918,-0.2836 -0.25288,-0.21697 -0.27266,-0.26009 -0.3032,-0.66101 -0.0341,-0.4467 0.0285,-0.63692 0.30674,-0.93265 0.52316,-0.55612 0.97932,-0.3747 0.95928,0.38152 -0.005,0.18112 -0.38068,0.62715 -0.59549,0.70666 l -0.16081,0.0595 0.19615,0.15327 c 0.1675,0.13088 0.26893,0.14984 0.6942,0.1298 0.27393,-0.0129 0.51756,-0.0449 0.54141,-0.0712 0.0239,-0.0263 0.1219,-0.0598 0.21789,-0.0746 0.14283,-0.0221 0.17187,-10e-4 0.15995,0.1168 -0.008,0.0791 -0.0598,0.16742 -0.115,0.1963 -0.0552,0.0289 -0.16965,0.0928 -0.25427,0.14194 -0.20095,0.11678 -0.94681,0.20295 -1.18767,0.13716 z m -0.11096,-1.35194 c 0.21172,-0.1389 0.25132,-0.3057 0.0706,-0.29719 -0.14178,0.007 -0.3555,0.2119 -0.34966,0.33576 0.006,0.11983 0.0462,0.11423 0.27909,-0.0386 z m -8.76779,1.32661 c -0.12108,-0.048 -0.24849,-0.13191 -0.28314,-0.18664 -0.0347,-0.0547 -0.13699,-0.10671 -0.22737,-0.11551 -0.0904,-0.009 -0.21071,-0.0795 -0.26734,-0.15697 -0.0926,-0.12673 -0.0863,-0.16267 0.0611,-0.35571 0.0902,-0.11812 0.16097,-0.28059 0.15718,-0.36105 -0.0203,-0.42957 0.43232,-1.01106 0.76892,-0.98799 0.26594,0.0182 0.45547,0.38142 0.42978,0.82357 -0.0165,0.283 -0.0618,0.38637 -0.25635,0.58387 -0.13,0.13201 -0.2258,0.24808 -0.21289,0.25795 0.0935,0.0715 0.35147,0.15825 0.45591,0.15333 0.13782,-0.006 0.40059,0.23068 0.31814,0.28716 -0.14812,0.10149 -0.74189,0.13796 -0.94396,0.058 z m 0.0689,-1.07804 c 0.20905,-0.16421 0.25115,-0.46327 0.0735,-0.52201 -0.15219,-0.0503 -0.31356,0.16644 -0.32594,0.43782 -0.0128,0.27905 -7.7e-4,0.28306 0.25245,0.0842 z m 1.32051,0.96227 c -0.23981,-0.19112 -0.35933,-0.65446 -0.25991,-1.00757 0.11925,-0.42361 0.49575,-0.82612 0.91798,-0.98143 l 0.37612,-0.13834 0.18335,0.1939 c 0.10083,0.10663 0.24941,0.22302 0.33017,0.25865 0.12793,0.0564 0.14982,0.12619 0.17,0.54175 0.0273,0.5682 0.0831,0.66864 0.34159,0.61817 0.12468,-0.0244 0.17758,-0.0114 0.15052,0.0377 -0.023,0.0414 -0.04,0.13549 -0.038,0.20919 0.005,0.16355 -0.37263,0.28117 -0.63083,0.19668 -0.11599,-0.0379 -0.20028,-0.0286 -0.26355,0.0291 -0.0512,0.0467 -0.31623,0.10981 -0.58902,0.14029 -0.4489,0.0501 -0.51427,0.0408 -0.68848,-0.0981 z m 1.01745,-0.58935 c 0.18281,-0.14201 0.23723,-0.58211 0.0917,-0.74156 -0.21515,-0.2357 -0.65257,-0.17645 -0.8906,0.12065 -0.2012,0.25114 -0.0408,0.67354 0.29715,0.78252 0.15987,0.0515 0.27518,0.0145 0.50176,-0.16159 z m 3.53414,0.37013 c -0.0473,-0.0431 -0.0903,-0.16925 -0.0955,-0.28048 -0.009,-0.1929 -0.0153,-0.19663 -0.13153,-0.0809 -0.32892,0.32712 -0.81883,0.29015 -0.83547,-0.063 -0.005,-0.0993 -0.0523,-0.21354 -0.10608,-0.25396 -0.0774,-0.0584 -0.11316,-0.0301 -0.17333,0.13694 -0.0417,0.11576 -0.10224,0.2117 -0.1346,0.21323 -0.0324,0.002 -0.0738,0.0773 -0.0922,0.16838 -0.0283,0.14071 -0.0612,0.15953 -0.21831,0.12514 -0.15835,-0.0347 -0.18799,-0.079 -0.20605,-0.30865 -0.012,-0.14749 -0.0537,-0.51356 -0.0936,-0.81347 -0.0768,-0.57775 -0.0516,-0.68952 0.16611,-0.73829 0.11997,-0.0269 0.13858,0.009 0.16019,0.3114 0.0493,0.68985 0.0641,0.78572 0.1205,0.78306 0.0317,-0.001 0.0922,-0.12735 0.13464,-0.2797 0.083,-0.29779 0.22484,-0.46872 0.38973,-0.46952 0.0637,0 0.17282,0.17239 0.2867,0.45381 0.17801,0.43987 0.19118,0.45395 0.41527,0.44339 l 0.23144,-0.0109 -0.0214,-0.45439 c -0.0166,-0.3525 0.005,-0.47604 0.0941,-0.55096 0.2312,-0.19331 0.27356,-0.13013 0.29421,0.43886 0.0112,0.30097 0.0408,0.56631 0.0664,0.58963 0.0902,0.0821 0.23393,-0.13175 0.36688,-0.54565 0.19165,-0.59671 0.5122,-0.73737 0.53586,-0.23515 0.007,0.13946 0.0877,0.38769 0.18032,0.55164 0.1319,0.23354 0.20155,0.293 0.32158,0.27455 0.17446,-0.0268 0.21224,0.0737 0.0538,0.14315 -0.0578,0.0254 -0.0886,0.0702 -0.0684,0.0995 0.0617,0.0901 -0.0417,0.20883 -0.23187,0.26618 -0.15982,0.0482 -0.19772,0.0248 -0.32728,-0.20205 -0.15572,-0.27272 -0.16291,-0.2927 -0.17159,-0.47674 -0.003,-0.065 -0.10755,0.0537 -0.23218,0.26392 -0.32009,0.53974 -0.4943,0.66842 -0.67827,0.50102 z m -7.22076,-3.19736 c -0.0613,-0.10265 -0.0816,-0.47186 -0.0297,-0.54535 0.007,-0.009 0.0145,-0.0564 0.017,-0.10369 0.003,-0.0473 0.0848,-0.0991 0.18305,-0.11522 0.14802,-0.0243 0.18626,0.003 0.22373,0.1587 0.10335,0.43 -0.21041,0.91252 -0.3938,0.60554 z"
         style="fill:#000000;stroke-width:0.06851137" />
    </g>
  </g>
</svg>
