<?xml version="1.0" encoding="UTF-8" standalone="no"?>
<!-- Created with Inkscape (http://www.inkscape.org/) -->

<svg
   xmlns:dc="http://purl.org/dc/elements/1.1/"
   xmlns:cc="http://creativecommons.org/ns#"
   xmlns:rdf="http://www.w3.org/1999/02/22-rdf-syntax-ns#"
   xmlns:svg="http://www.w3.org/2000/svg"
   xmlns="http://www.w3.org/2000/svg"
   xmlns:sodipodi="http://sodipodi.sourceforge.net/DTD/sodipodi-0.dtd"
   xmlns:inkscape="http://www.inkscape.org/namespaces/inkscape"
   width="338.40067mm"
   height="21.957846mm"
   viewBox="0 0 338.40067 21.957846"
   version="1.1"
   id="svg471"
   inkscape:version="0.92.1 r15371"
   sodipodi:docname="logo2.svg">
  <defs
     id="defs465" />
  <sodipodi:namedview
     id="base"
     pagecolor="#ffffff"
     bordercolor="#666666"
     borderopacity="1.0"
     inkscape:pageopacity="0.0"
     inkscape:pageshadow="2"
     inkscape:zoom="0.35"
     inkscape:cx="1018.0687"
     inkscape:cy="-227.07634"
     inkscape:document-units="mm"
     inkscape:current-layer="layer1"
     showgrid="false"
     fit-margin-top="0"
     fit-margin-left="0"
     fit-margin-right="0"
     fit-margin-bottom="0"
     inkscape:window-width="1877"
     inkscape:window-height="1012"
     inkscape:window-x="43"
     inkscape:window-y="31"
     inkscape:window-maximized="1" />
  <metadata
     id="metadata468">
    <rdf:RDF>
      <cc:Work
         rdf:about="">
        <dc:format>image/svg+xml</dc:format>
        <dc:type
           rdf:resource="http://purl.org/dc/dcmitype/StillImage" />
        <dc:title></dc:title>
      </cc:Work>
    </rdf:RDF>
  </metadata>
  <g
     inkscape:label="Camada 1"
     inkscape:groupmode="layer"
     id="layer1"
     transform="translate(103.43247,-95.521062)">
    <g
       style="display:inline"
       inkscape:export-filename="/media/dados/trampos/joana/recursos/imgs/logo2.png"
       inkscape:export-ydpi="100"
       inkscape:export-xdpi="100"
       transform="matrix(0.24407768,0,0,0.24407768,223.88868,81.131336)"
       id="g1260">
      <path
         inkscape:connector-curvature="0"
         id="path1224"
         style="fill:#000000;stroke-width:0.35277775"
         d="m -475.95427,118.48359 c 2.20281,-0.40721 4.81676,-1.71867 7.94724,-3.98728 2.32438,-1.68445 2.95211,-2.35597 3.54873,-3.79635 1.17108,-2.82724 -2.92019,-4.15921 -7.4882,-2.43787 -3.15906,1.19041 -3.78714,1.82268 -5.57241,5.60952 -0.794,1.68418 -1.33731,4.99282 -0.81989,4.99282 0.17843,0 1.25148,-0.17138 2.38453,-0.38084 z m -15.3361,7.95907 c 0,-0.34454 -1.84065,-3.70348 -2.12615,-3.87993 -0.50931,-0.31476 -0.10816,2.24319 0.49646,3.166 0.5044,0.76979 1.62969,1.26276 1.62969,0.71393 z m 22.4687,9.58016 c -0.73907,-0.23504 -1.47539,-0.64029 -1.63625,-0.90056 -0.16083,-0.26027 -0.45798,-0.37092 -0.6603,-0.24588 -0.20231,0.12503 -0.46041,0.0776 -0.57351,-0.10546 -0.11313,-0.18304 -0.79879,-0.52721 -1.52368,-0.76483 -1.91611,-0.62809 -5.37496,-3.2638 -5.37496,-4.09583 0,-0.25774 -0.47671,-1.1267 -1.05939,-1.93103 -0.58265,-0.80434 -1.22375,-2.07296 -1.42469,-2.81917 -0.2982,-1.10739 -0.52493,-1.35674 -1.23366,-1.35674 -0.4776,0 -0.86837,-0.12453 -0.86837,-0.27672 0,-0.50119 -2.08089,-1.51769 -3.33777,-1.63047 -0.67836,-0.0609 -1.4787,-0.31428 -1.77856,-0.56313 -0.80134,-0.66504 -0.92993,-0.28693 -0.30572,0.89893 2.43177,4.61981 2.64181,8.90085 0.51975,10.59318 -0.58202,0.46416 -3.36085,0.0417 -4.22325,-0.64212 -3.17697,-2.519 -3.91357,-3.91528 -3.80732,-7.21699 0.0596,-1.84994 0.26279,-2.68329 0.85852,-3.5199 l 0.78049,-1.09613 -0.86042,-1.8893 c -1.06769,-2.34439 -1.32426,-3.44701 -1.41383,-6.07551 -0.22627,-6.64017 2.16849,-9.93588 7.20668,-9.91795 2.71442,0.01 4.25045,0.38847 5.44171,1.34205 2.12936,1.70451 1.81938,7.89367 -0.43833,8.75205 -0.51354,0.19526 -1.21864,0.61287 -1.5669,0.92803 -0.53604,0.48513 -0.60148,0.49039 -0.42647,0.0343 0.16372,-0.42665 -0.0113,-0.50672 -0.84085,-0.38495 -1.39446,0.20466 -1.28037,-0.56917 0.32862,-2.22923 1.00333,-1.03516 1.1201,-1.30468 0.68456,-1.58004 -0.28878,-0.18259 -0.72351,-0.33442 -0.96605,-0.33739 -0.24253,-0.003 -0.44097,-0.14782 -0.44097,-0.32189 0,-0.17406 -0.877,-0.30958 -1.94888,-0.30115 -1.70434,0.0134 -2.08337,0.15272 -3.02066,1.11023 -0.92026,0.94014 -1.03957,1.26944 -0.8442,2.32963 0.25957,1.40833 2.7716,6.87799 3.3123,7.21216 0.19685,0.12168 2.11282,0.27969 4.25768,0.35114 4.4155,0.14709 4.59376,0.0473 4.59376,-2.57273 0,-3.78198 2.70175,-9.63646 5.46806,-11.84888 2.40502,-1.92347 5.37898,-3.01947 8.19326,-3.01947 2.15491,0 2.63592,0.12701 3.87195,1.02238 1.78202,1.2909 2.56653,3.18035 2.53626,6.10866 -0.0367,3.55188 -0.8085,5.34468 -3.53773,8.21785 -2.77435,2.92064 -5.70731,4.63168 -8.48349,4.9491 -1.02517,0.11721 -1.96028,0.36899 -2.07804,0.55952 -0.11776,0.19052 -0.35828,0.31922 -0.53453,0.28601 -1.75877,-0.33149 -1.53613,0.71416 0.60872,2.859 2.11032,2.11034 5.8989,3.99954 9.65415,4.81412 5.38575,1.16826 14.9715,-0.41742 17.87229,-2.95645 0.32237,-0.28219 1.03674,-0.46149 1.5875,-0.39844 0.98848,0.11317 1.00132,0.14481 1.00132,2.47026 0,1.81045 -0.16432,2.57565 -0.71003,3.30639 -0.84459,1.13095 -3.15945,2.10126 -5.75776,2.41344 -1.03491,0.12434 -2.86053,0.36134 -4.05694,0.52667 -3.31675,0.45832 -11.50116,0.40387 -13.04407,-0.0868 z" />
      <path
         inkscape:connector-curvature="0"
         style="fill:#000000;stroke-width:0.35277775"
         d="m -818.31535,134.38811 c -5.26118,-0.58785 -7.45641,-0.96649 -9.68494,-1.67048 -3.08548,-0.9747 -6.70974,-1.79503 -7.03831,-1.59308 -0.1755,0.10786 -0.22364,0.0417 -0.10698,-0.14709 0.11666,-0.18877 -0.37474,-0.55317 -1.09202,-0.80978 -0.71727,-0.25662 -1.38351,-0.57931 -1.48052,-0.7171 -0.20252,-0.28765 -2.65445,-1.74921 -4.8507,-2.89143 -0.82461,-0.42887 -1.4993,-0.89794 -1.4993,-1.04238 0,-0.14445 -1.27,-1.51232 -2.82222,-3.03972 -1.55223,-1.52741 -2.82223,-3.0351 -2.82223,-3.35043 0,-0.31533 -0.15875,-0.67144 -0.35277,-0.79136 -0.38553,-0.23827 -0.46258,-2.02426 -0.13932,-3.22922 0.1556,-0.57997 0.53013,-0.79089 1.58269,-0.89126 0.75837,-0.0723 1.37885,-0.003 1.37885,0.15482 0,0.15748 0.30706,0.12198 0.68236,-0.0789 0.90022,-0.48178 1.82423,-0.49239 1.08153,-0.0124 -0.44749,0.28918 -0.42955,0.34281 0.11622,0.34737 0.54239,0.005 0.6065,0.18838 0.40171,1.15193 -0.13402,0.63059 -0.45086,1.38466 -0.70407,1.6757 -0.38467,0.44213 -0.33469,0.67765 0.30384,1.43192 1.0343,1.22176 3.26566,2.89775 5.08577,3.81997 0.82462,0.41782 1.4993,0.91519 1.4993,1.10528 0,0.19008 0.23813,0.34561 0.52917,0.34561 0.29104,0 0.52917,0.15646 0.52917,0.34769 0,0.19124 0.71437,0.52758 1.5875,0.74744 0.87312,0.21985 1.58793,0.57933 1.58847,0.79883 7.1e-4,0.22424 0.62035,0.41521 1.41469,0.43588 0.77754,0.0203 2.40429,0.44441 3.615,0.94261 1.82258,0.74999 3.77049,1.22968 6.08184,1.4977 0.19402,0.0225 0.98777,0.15058 1.76389,0.28463 3.95256,0.68265 6.4098,0.78723 9.48104,0.4035 0.99431,-0.12423 1.90251,-0.17286 2.01821,-0.10805 0.1157,0.0648 0.43813,-0.0712 0.71651,-0.30225 0.27838,-0.23103 0.95128,-0.50078 1.49532,-0.59944 2.33798,-0.42395 5.16558,-3.84662 5.69071,-6.8883 0.11443,-0.66277 0.3003,-1.3543 0.41305,-1.53674 0.24883,-0.40261 0.22414,-11.79269 -0.0264,-12.19814 -0.0976,-0.15792 -0.19992,-4.3223 -0.22736,-9.254165 -0.0452,-8.128401 -0.49381,-21.036864 -0.84339,-24.269515 -0.12633,-1.168097 -0.52626,-4.487609 -0.74902,-6.21696 -0.32984,-2.560666 -0.48291,-8.544485 -0.22816,-8.919588 1.05522,-1.553757 2.69537,2.056706 3.09039,6.802921 0.0485,0.582083 0.26194,2.645833 0.47443,4.586111 0.93347,8.523569 1.04257,10.287853 1.07988,17.462499 0.0217,4.171597 0.10805,9.013472 0.19192,10.759722 1.06755,22.228195 0.96012,24.690475 -1.27586,29.242835 -1.37991,2.80943 -1.90932,3.39843 -3.9515,4.39626 -3.40932,1.66584 -8.93247,2.38256 -13.99835,1.81653 z"
         id="path1222" />
      <path
         inkscape:connector-curvature="0"
         id="path1218"
         style="fill:#000000;stroke-width:0.35277775"
         d="m -756.75755,126.20056 c 3.1606,-0.79448 5.59497,-2.68165 7.67535,-5.95006 1.88974,-2.9689 2.17745,-4.15572 1.96092,-8.08885 -0.0768,-1.39484 -1.74093,-1.84798 -3.46074,-0.94234 -1.5423,0.81217 -2.60605,1.46018 -3.0343,1.84842 -0.22867,0.20731 -0.86981,0.76309 -1.42475,1.23509 -2.76044,2.34779 -5.4561,7.11309 -5.70215,10.08002 -0.22767,2.74551 -0.0421,2.83017 3.98567,1.81772 z m 14.16332,6.41225 c -0.55442,-0.16614 -1.32302,-0.58714 -1.708,-0.93554 -0.928,-0.83982 -2.04525,-3.19508 -2.05127,-4.32424 -0.003,-0.49713 -0.10004,-1.25917 -0.21644,-1.69342 -0.19632,-0.73251 -0.30823,-0.6688 -1.54929,0.88194 -0.73572,0.91932 -1.94802,1.98747 -2.69398,2.37367 -0.74597,0.3862 -1.46958,0.86245 -1.60802,1.05833 -0.13844,0.19589 -0.37657,0.36748 -0.52917,0.38133 -0.1526,0.0138 -0.7537,0.23205 -1.33578,0.4849 -2.9099,1.26401 -5.02387,1.76458 -6.41256,1.51844 -1.20189,-0.21303 -2.7572,-1.59191 -3.23013,-2.86371 -0.18994,-0.51078 -0.4648,-1.24619 -0.61081,-1.63425 -0.146,-0.38805 -0.22424,-0.8643 -0.17386,-1.05833 0.0504,-0.19403 0.14045,-1.41318 0.20015,-2.70921 0.33315,-7.23221 5.2075,-14.68796 11.84732,-18.12154 1.5411,-0.79694 7.64173,-0.59907 8.51704,0.27624 0.34241,0.34241 0.62257,0.84125 0.62257,1.10854 0,0.26728 0.23812,0.68359 0.52917,0.92514 0.31123,0.2583 0.52916,1.02854 0.52916,1.87023 0,0.78708 0.19319,1.96531 0.4293,2.61828 0.45222,1.25056 0.0504,2.48535 -0.74925,2.30246 -0.21208,-0.0485 -0.39731,0.18962 -0.41162,0.52916 -0.0718,1.70414 0.0679,8.46859 0.18757,9.08403 0.0755,0.38806 0.14939,0.98337 0.16423,1.32292 0.0193,0.4416 0.32176,0.61736 1.06236,0.61736 1.62869,0 2.76273,-0.58042 4.42144,-2.26294 0.84608,-0.85824 1.61729,-1.48148 1.71379,-1.38498 0.0965,0.0965 0.10045,1.27987 0.009,2.62973 -0.15925,2.34505 -0.23244,2.51495 -1.64455,3.81756 -0.81283,0.7498 -1.99237,1.85543 -2.62119,2.45695 -1.23794,1.1842 -1.20469,1.17515 -2.68695,0.73095 z" />
      <path
         inkscape:connector-curvature="0"
         id="path1214"
         style="fill:#000000;stroke-width:0.35277775"
         d="m -674.2906,118.46501 c 4.67328,-2.38413 6.87941,-5.51481 5.26065,-7.4653 -0.99967,-1.20452 -4.0669,-0.80584 -5.43556,0.70651 -0.63593,0.7027 -2.13725,4.45226 -2.54832,6.36446 -0.21721,1.01039 -0.1577,1.14653 0.50117,1.14653 0.4112,0 1.41113,-0.33849 2.22206,-0.7522 z m 0.26136,13.78944 c -1.06716,-0.36858 -2.17841,-0.67938 -2.46945,-0.69065 -0.70521,-0.0273 -3.88055,-3.76133 -3.88055,-4.56331 0,-0.34733 -0.403,-1.03452 -0.89556,-1.52707 -1.08764,-1.08765 -1.32737,-1.89126 -1.42554,-4.77863 -0.10103,-2.97108 0.21543,-3.98674 1.5046,-4.82897 0.83977,-0.54864 1.26643,-1.28191 1.91837,-3.29698 1.23697,-3.82334 4.59312,-7.47309 7.05224,-7.66918 0.31316,-0.025 0.73149,-0.14559 0.92961,-0.26804 0.59135,-0.36547 2.51263,0.4815 2.74369,1.20952 0.11802,0.37184 0.48657,0.67607 0.81902,0.67607 0.91715,0 1.64091,1.92383 1.99473,5.30216 0.40469,3.86414 -2.05109,8.8229 -5.24453,10.58987 -0.80252,0.44405 -1.83773,1.09812 -2.30046,1.4535 -0.46273,0.35537 -1.20742,0.64613 -1.65487,0.64613 -0.44746,0 -0.91242,0.15997 -1.03325,0.35549 -0.5851,0.9467 2.21168,2.084 5.11695,2.08078 1.42694,-10e-4 11.03902,-0.65006 12.34722,-0.833 2.09616,-0.29313 3.76023,-0.66974 4.07444,-0.92212 0.53745,-0.4317 3.47373,-0.8523 3.28309,-0.47029 -0.0874,0.17507 -0.32857,0.71518 -0.536,1.20025 -1.01653,2.37719 -1.28768,2.69201 -2.95673,3.4329 -1.51642,0.67313 -2.2053,0.869 -4.04119,1.149 -0.19403,0.0296 -0.0353,0.19313 0.35278,0.36342 0.59101,0.25935 0.53211,0.30138 -0.36288,0.25889 -0.58763,-0.0279 -1.25234,0.063 -1.47713,0.20188 -0.22479,0.13893 -1.72837,0.42228 -3.3413,0.62967 -1.61292,0.20739 -3.32946,0.44317 -3.81453,0.52396 -2.84827,0.47435 -4.87438,0.40627 -6.70277,-0.22525 z" />
      <path
         inkscape:connector-curvature="0"
         id="path1210"
         style="fill:#000000;stroke-width:0.35277775"
         d="m -785.3061,118.83151 c 1.44172,-0.60019 2.62131,-1.22449 2.62131,-1.38734 0,-0.16285 0.31045,-0.39462 0.6899,-0.51505 1.05371,-0.33444 3.83668,-2.75219 4.8004,-4.17043 1.5954,-2.34784 0.71444,-5.53593 -1.52973,-5.53593 -1.84714,0 -4.87182,2.15865 -6.59437,4.70626 -2.21816,3.28062 -3.98821,7.99374 -3.00211,7.99374 0.21631,0 1.57288,-0.49106 3.0146,-1.09125 z m 2.26853,13.24845 c -3.67248,-0.65149 -6.11935,-2.07478 -7.60048,-4.42106 -0.44706,-0.70818 -1.52778,-1.73991 -2.40162,-2.29273 -1.24688,-0.78885 -1.63917,-1.27375 -1.82294,-2.25333 -0.12879,-0.6865 -0.39624,-1.34835 -0.59432,-1.47078 -0.51216,-0.31652 0.49724,-2.25975 1.14548,-2.20519 0.28279,0.0238 0.82457,0.10318 1.20397,0.17639 0.69778,0.13465 0.9196,-0.584 1.83723,-5.9523 0.10779,-0.63059 0.34674,-1.14653 0.53098,-1.14653 0.18426,0 0.22592,-0.1765 0.0926,-0.39222 -0.13332,-0.21572 -0.0998,-0.49354 0.0746,-0.61736 0.17433,-0.12383 0.51314,-0.62202 0.75293,-1.10709 0.23978,-0.48507 1.27911,-2.057 2.30961,-3.49318 1.42162,-1.98129 2.4211,-2.94529 4.14295,-3.99592 1.99742,-1.21876 2.4725,-1.36626 3.96497,-1.23099 2.0481,0.18564 3.56165,1.48245 4.95826,4.24826 1.40984,2.792 1.84154,5.48689 1.27012,7.92875 -0.25884,1.10613 -0.71179,2.40801 -1.00656,2.89308 -1.06464,1.75198 -4.49403,4.7792 -6.39296,5.64324 -1.06459,0.4844 -2.13876,1.07309 -2.38706,1.30819 -0.24829,0.2351 -1.3127,0.69894 -2.36535,1.03076 -1.05265,0.33182 -1.82709,0.74378 -1.72098,0.91546 0.39092,0.63253 4.23119,2.07903 6.29312,2.37041 1.16887,0.16517 4.34771,0.23497 7.0641,0.15511 5.65228,-0.16618 5.82079,-0.17943 5.82096,-0.45766 2.8e-4,-0.474 2.41887,-0.31693 2.60541,0.1692 0.11002,0.28671 -0.0127,0.50696 -0.28241,0.50696 -0.26232,0 -0.55691,0.30575 -0.65463,0.67945 -0.1111,0.42486 -0.72607,0.84376 -1.64121,1.11794 -0.80495,0.24117 -1.29347,0.54359 -1.08562,0.67205 0.50588,0.31266 -2.06223,1.0587 -4.341,1.26109 -4.05749,0.36035 -7.59492,0.34587 -9.77011,-0.04 z" />
      <path
         inkscape:connector-curvature="0"
         id="path1204"
         style="fill:#000000;stroke-width:0.35277775"
         d="m -523.04036,115.01344 c 0,-0.17776 -0.47625,-0.53401 -1.05834,-0.79167 -0.58208,-0.25765 -1.05833,-0.65294 -1.05833,-0.87841 0,-0.42852 -2.63666,-0.93399 -5.20347,-0.99754 -0.99546,-0.0247 -1.49931,0.11326 -1.49931,0.41039 0,0.24613 -0.42546,0.72628 -0.94547,1.06701 l -0.94548,0.6195 2.09201,0.40173 c 2.56911,0.49336 8.61839,0.61198 8.61839,0.16899 z m -4.40255,11.61049 c 2.44041,-0.54691 4.21389,-1.71286 5.1153,-3.36298 0.79198,-1.44975 0.81075,-1.85242 0.28314,-6.07222 -0.0659,-0.52705 -0.88671,-0.59219 -1.05615,-0.0838 -0.18056,0.54167 -4.26076,1.13011 -4.55336,0.65667 -0.16997,-0.27501 -0.30539,-0.27307 -0.47838,0.007 -0.13272,0.21474 -0.0732,0.39044 0.13229,0.39044 0.20548,0 0.3736,0.18185 0.3736,0.40412 0,0.48022 -8.17222,0.13107 -9.14736,-0.39082 -0.9511,-0.50901 -2.1428,0.33551 -3.21692,2.27975 -1.42942,2.58736 -1.56493,3.67865 -0.60378,4.86253 0.6481,0.7983 1.29212,1.07156 3.44306,1.4609 2.83667,0.51348 7.03375,0.44801 9.70856,-0.15143 z m -10.41412,5.76426 c -1.08608,-0.19399 -3.03171,-0.75401 -4.31038,-1.24068 -1.56617,-0.5961 -2.81409,-3.13939 -2.98814,-6.08994 -0.12966,-2.1982 -0.008,-2.8702 0.96555,-5.32456 0.61266,-1.54487 1.49447,-3.21442 1.95956,-3.71011 0.72689,-0.7747 0.84563,-1.24996 0.84563,-3.38471 0,-2.0689 0.13251,-2.63635 0.79375,-3.39932 0.78379,-0.90435 2.24272,-1.6512 3.61597,-1.85106 0.38806,-0.0565 1.48215,-0.28119 2.43132,-0.49936 1.90751,-0.43845 5.89835,-0.17277 6.2628,0.41694 0.12678,0.20513 0.48084,0.2769 0.78681,0.15949 0.8482,-0.32548 3.68249,0.65425 4.628,1.59977 0.46252,0.4625 1.49405,1.99347 2.29228,3.40215 1.21218,2.13913 1.49271,3.00816 1.70229,5.27318 0.51096,5.52252 -0.58134,8.96136 -3.84789,12.11405 -1.46085,1.40996 -2.60217,1.87843 -5.74819,2.35942 -2.19076,0.33494 -7.89778,0.44115 -9.38936,0.17474 z" />
      <path
         inkscape:connector-curvature="0"
         style="fill:#000000;stroke-width:0.35277775"
         d="m -703.2216,131.06764 c -0.43657,-0.46056 -0.79375,-1.14044 -0.79375,-1.51085 0,-0.37041 -0.14235,-0.82429 -0.31632,-1.00861 -0.17398,-0.18433 -0.41359,-2.16077 -0.53249,-4.39208 -0.2131,-3.99941 -0.45029,-6.38495 -0.80672,-8.11389 -0.34465,-1.67176 -0.40805,-10.02336 -0.0807,-10.63495 0.32353,-0.60453 1.5611,-0.63067 2.12217,-0.0448 0.32853,0.34303 0.66924,2.17171 0.87244,4.68256 0.0864,1.06716 0.3115,2.97216 0.5003,4.23334 0.18881,1.26118 0.43048,3.16618 0.53704,4.23333 0.10656,1.06715 0.25648,2.25778 0.33315,2.64583 0.0767,0.38806 0.15155,1.09245 0.1664,1.56531 l 0.027,0.85975 1.02358,-0.98065 c 1.64468,-1.57571 5.32642,-9.59534 5.32642,-11.60212 0,-0.84793 1.59113,-1.78019 2.60431,-1.5259 1.02269,0.25668 1.13472,0.87666 1.39058,7.69539 0.22433,5.97874 0.52548,6.76714 2.64318,6.91995 1.14402,0.0825 1.91362,-0.12264 3.12688,-0.83366 1.76757,-1.03586 2.25063,-0.82942 1.95427,0.83516 -0.24365,1.36844 -2.22189,3.90678 -3.25255,4.17343 -0.48507,0.1255 -1.30333,0.52253 -1.81835,0.88229 -2.36592,1.65268 -5.23721,-0.23036 -5.23721,-3.43466 0,-0.44466 -0.13443,-0.89156 -0.29874,-0.99311 -0.1643,-0.10154 -0.31848,-0.62685 -0.34262,-1.16735 -0.0507,-1.13485 -0.69406,-3.36533 -0.73943,-2.56349 -0.0625,1.10443 -3.22787,6.98246 -4.05033,7.52136 -0.47075,0.30845 -1.03562,1.10532 -1.25526,1.77083 -0.24847,0.75289 -0.6935,1.28889 -1.17801,1.41879 -1.07971,0.28949 -1.04025,0.30242 -1.92519,-0.63116 z"
         id="path1200" />
      <path
         inkscape:connector-curvature="0"
         id="path1196"
         style="fill:#000000;stroke-width:0.35277775"
         d="m -506.10703,125.97466 c 0,-0.16396 -0.3175,-0.58543 -0.70556,-0.93662 -0.38805,-0.35119 -0.70555,-0.82211 -0.70555,-1.04649 0,-0.22438 -0.32015,-0.75159 -0.71141,-1.17158 -0.66644,-0.71532 -0.75438,-0.72682 -1.39087,-0.18186 -0.51533,0.44126 -0.59612,0.73741 -0.3345,1.22626 0.22186,0.41456 0.22285,0.6445 0.004,0.6445 -0.18824,0 -0.78913,0.17822 -1.33534,0.39605 l -0.9931,0.39604 1.05833,0.46999 c 1.16851,0.51891 5.11528,0.67609 5.11528,0.20371 z m -3.26122,5.73875 c -0.11345,-0.11345 -1.53977,-0.4269 -3.26517,-0.71755 -0.58208,-0.0981 -1.45521,-0.45752 -1.94028,-0.79882 -0.48507,-0.34129 -1.12264,-0.70965 -1.41682,-0.81857 -0.29419,-0.10893 -0.75893,-0.61669 -1.0328,-1.12837 -0.43719,-0.81689 -0.42089,-1.17696 0.1335,-2.95314 0.82123,-2.63093 0.9871,-2.80495 3.3324,-3.49583 1.75507,-0.51699 2.31726,-0.63733 3.74622,-0.80186 0.19403,-0.0223 0.11247,-0.234 -0.18126,-0.47037 -1.22904,-0.98909 -3.74212,-5.46044 -4.60353,-8.19086 -0.44031,-1.39553 -0.55997,-4.98487 -0.21171,-6.35 0.099,-0.38806 0.19216,-0.90353 0.20701,-1.14551 0.0148,-0.24198 0.59973,-1.0739 1.29974,-1.84872 1.51924,-1.68165 2.99826,-2.15547 6.98649,-2.23823 3.44614,-0.0715 4.82921,0.43177 5.59399,2.03555 0.69522,1.4579 0.46669,4.00825 -0.43437,4.84773 -0.79735,0.74286 -2.12997,0.46099 -2.12997,-0.45052 0,-1.0552 -2.73406,-1.49085 -5.69309,-0.90716 -1.64899,0.32528 -3.11337,1.74931 -2.88512,2.80562 0.45032,2.08413 3.06966,6.23259 6.93021,10.97595 2.47763,3.04425 3.00697,4.80717 2.54755,8.48445 -0.31987,2.56008 -1.10483,3.12565 -4.45625,3.21079 -1.33135,0.0338 -2.46839,0.0138 -2.52674,-0.0446 z" />
      <path
         inkscape:connector-curvature="0"
         style="fill:#000000;stroke-width:0.35277775"
         d="m -729.61217,130.48352 c -0.5841,-0.64543 -0.66996,-1.45688 -0.75585,-7.14375 -0.0533,-3.52859 -0.28273,-7.76499 -0.50985,-9.41423 -0.42419,-3.08025 -0.51112,-3.96085 -0.66171,-6.70278 -0.14098,-2.56687 -0.0309,-3.1296 0.68756,-3.5141 1.48374,-0.79407 1.79673,-0.23147 2.49421,4.48331 0.17932,1.21216 0.57007,3.49038 0.86833,5.0627 0.29827,1.57233 0.55996,4.03337 0.58154,5.46899 0.0216,1.43562 0.0904,2.61021 0.153,2.61021 0.57978,0 3.36762,-6.10975 3.81838,-8.36826 0.0473,-0.23692 0.1964,-0.54119 0.33137,-0.67615 0.13497,-0.13497 0.25044,-0.73488 0.25661,-1.33313 0.0146,-1.41928 0.6127,-2.15246 1.97586,-2.42229 1.04273,-0.2064 1.1358,-0.13505 1.64841,1.26346 0.2988,0.81521 0.72947,2.67283 0.95703,4.12804 0.80889,5.17264 1.47967,8.23029 2.14717,9.78749 0.66118,1.54248 0.70561,1.57298 1.95077,1.33939 1.67384,-0.31401 2.18151,-0.6648 3.65677,-2.52676 1.77,-2.23398 2.73503,-1.78304 1.97929,0.92488 -0.13538,0.48507 -0.29017,1.27882 -0.34399,1.76389 -0.15795,1.4237 -1.01213,2.70931 -2.44472,3.67955 -0.73622,0.49861 -1.46568,0.90656 -1.62102,0.90656 -0.15534,0 -0.56977,0.3175 -0.92095,0.70556 -0.81112,0.89627 -1.76314,0.8961 -2.90303,-7.1e-4 -0.99271,-0.78087 -2.42468,-3.38086 -2.91414,-5.29114 -0.17401,-0.6791 -0.4945,-1.86972 -0.71221,-2.64583 -0.21771,-0.77611 -0.47661,-2.04464 -0.57533,-2.81896 -0.0987,-0.77431 -0.22955,-1.45789 -0.29071,-1.51905 -0.0612,-0.0612 -0.3933,0.81049 -0.73808,1.93701 -0.61418,2.0068 -0.99802,2.80682 -3.30481,6.88804 -0.62721,1.10968 -1.03924,2.18125 -0.91564,2.38125 0.12362,0.20001 0.0752,0.36365 -0.1077,0.36365 -0.18285,0 -0.41548,0.3175 -0.51696,0.70556 -0.25831,0.98777 -2.36844,0.9732 -3.2696,-0.0226 z"
         id="path1194" />
      <path
         id="path1247"
         style="fill:#000000;stroke-width:0.35277778"
         d="m -604.33763,136.75224 c -0.11228,-0.11228 -2.64419,-0.21234 -5.62647,-0.22235 -5.61569,-0.0188 -9.53966,-0.56389 -10.42365,-1.44788 -0.5399,-0.5399 -0.71279,-2.35983 -0.35537,-3.74072 0.27866,-1.07655 0.85598,-1.75348 1.97962,-2.32118 1.1763,-0.5943 4.61098,-1.42425 5.40555,-1.30618 0.33955,0.0505 0.61736,-0.0583 0.61736,-0.24163 0,-0.18335 0.635,-0.34213 1.41111,-0.35285 2.11598,-0.0292 1.9101,0.65819 -0.93185,3.11131 -0.33717,0.29104 -0.86075,0.63707 -1.16351,0.76895 -0.53476,0.23295 1.14228,0.33949 5.40968,0.34368 1.14378,0.001 2.43715,0.13798 2.87415,0.30413 0.437,0.16614 0.90343,0.19315 1.03652,0.06 0.35473,-0.35486 4.09121,-0.39526 3.87281,-0.0419 -0.10194,0.16494 1.56441,0.26127 3.70299,0.21408 2.13858,-0.0472 3.93437,0.0523 3.99064,0.22112 0.0571,0.17116 0.93934,0.15479 1.99455,-0.037 1.04074,-0.18916 2.3372,-0.21632 2.88102,-0.0604 0.65767,0.18862 1.05431,0.14602 1.1845,-0.12722 0.14276,-0.29963 0.25275,-0.28748 0.40642,0.0449 0.15456,0.33429 0.33416,0.35323 0.67415,0.0711 0.32637,-0.27087 0.53213,-0.27352 0.69562,-0.009 0.1277,0.20661 0.41964,0.25526 0.64877,0.1081 0.22913,-0.14716 2.08347,-0.2869 4.12077,-0.31052 2.03729,-0.0236 4.90451,-0.14967 6.3716,-0.2801 1.4671,-0.13042 4.04147,-0.30688 5.72083,-0.39213 3.67778,-0.18669 7.66327,-0.7916 8.21111,-1.24626 0.21938,-0.18207 0.47728,-0.25263 0.57311,-0.15679 0.0958,0.0958 1.09827,-0.14368 2.22763,-0.53223 1.12937,-0.38856 2.30635,-0.70881 2.61553,-0.71167 0.30917,-0.003 0.90581,-0.2013 1.32587,-0.44097 0.42006,-0.23968 1.48237,-0.81648 2.36069,-1.28179 0.87832,-0.4653 2.20151,-1.46545 2.94042,-2.22255 1.21824,-1.24822 1.34123,-1.54755 1.31928,-3.21093 -0.027,-2.04801 -1.6344,-5.94345 -3.10836,-7.53306 -0.4711,-0.50806 -1.06724,-1.3387 -1.32476,-1.84587 -0.50891,-1.00229 -2.51633,-3.65733 -3.65215,-4.83038 -0.39048,-0.40328 -1.29489,-1.38953 -2.00978,-2.19166 -1.07749,-1.20895 -4.56269,-4.33737 -7.87825,-7.071735 -0.96502,-0.79587 -4.3845,-2.87975 -4.72543,-2.87975 -0.15106,0 -0.56199,-0.3175 -0.91318,-0.70556 -0.35118,-0.38805 -0.84415,-0.70555 -1.09548,-0.70555 -0.25132,0 -0.58391,-0.19844 -0.73907,-0.44097 -0.30102,-0.47053 -6.39108,-3.5441 -7.86684,-3.97029 -0.48507,-0.14009 -1.59632,-0.61194 -2.46944,-1.04857 -1.56839,-0.78432 -6.18572,-2.65406 -6.5542,-2.65406 -0.10462,0 -0.0693,0.19565 0.0785,0.43477 0.14779,0.23912 0.29397,0.67569 0.32484,0.97014 0.0906,0.86372 1.23052,8.90486 1.42528,10.05371 0.49693,2.93133 2.64875,10.826535 3.4151,12.530265 0.48,1.06715 1.50801,2.7083 2.28444,3.64699 1.12581,1.36108 1.44644,2.06827 1.58324,3.49204 0.2484,2.58509 0.0379,3.09152 -1.28505,3.09152 -1.25297,0 -2.45224,-1.13597 -3.46784,-3.28481 -0.33453,-0.70778 -1.0489,-1.79252 -1.5875,-2.41052 -1.53038,-1.75598 -11.12416,-11.238 -11.37046,-11.238 -0.12119,0 -1.74786,-1.46844 -3.61483,-3.263185 -1.86696,-1.79476 -3.31192,-3.10445 -3.21103,-2.91042 0.1009,0.19403 -1.0075,-0.91722 -2.4631,-2.46944 -1.4556,-1.55223 -2.84026,-2.98098 -3.07701,-3.175 -0.23676,-0.19403 -1.82917,-1.74184 -3.53869,-3.43959 -1.70953,-1.69774 -3.27522,-3.0868 -3.47932,-3.0868 -0.2041,0 -0.62707,-0.39069 -0.93994,-0.86819 -0.31288,-0.4775 -0.86476,-0.9621 -1.22641,-1.07689 -1.13381,-0.35985 -2.80787,-3.92515 -2.80171,-5.96688 0.008,-2.64744 0.20179,-2.80663 3.33377,-2.73835 2.39615,0.0522 5.77312,0.45926 7.77333,0.93691 0.38805,0.0927 1.38122,0.33274 2.20704,0.53349 0.82581,0.20075 2.09581,0.45057 2.82222,0.55517 1.83535,0.26427 5.0249,1.25991 5.0249,1.56855 0,0.14056 0.35719,0.19128 0.79375,0.1127 0.43657,-0.0786 1.98438,0.18998 3.43959,0.59681 1.45521,0.40683 2.88396,0.77973 3.175,0.82867 0.29104,0.0489 0.92604,0.25863 1.41111,0.46598 0.48507,0.20735 1.75507,0.66177 2.82222,1.00981 1.06715,0.34805 2.01965,0.73515 2.11667,0.86024 0.097,0.12508 1.12889,0.52222 2.29305,0.88253 1.16417,0.3603 2.8541,1.02508 3.7554,1.47727 0.90131,0.4522 1.87405,0.82218 2.16167,0.82218 0.28761,0 0.71911,0.23638 0.95888,0.52528 0.23977,0.2889 0.5896,0.43031 0.77742,0.31424 0.1878,-0.11607 0.78998,0.21866 1.33816,0.74385 0.54818,0.5252 1.09091,0.93941 1.20606,0.92048 0.11514,-0.0189 0.28873,-0.0146 0.38575,0.01 0.097,0.0242 0.33514,0.0838 0.52916,0.13229 0.19403,0.0485 0.57957,0.10804 0.85675,0.13229 0.27718,0.0242 0.71375,0.24935 0.97014,0.50021 0.25639,0.25087 1.73617,1.23718 3.28839,2.1918 1.55222,0.95463 3.07897,2.01938 3.39277,2.36611 0.3138,0.34673 0.79039,0.63042 1.05909,0.63042 0.67047,0 3.86629,3.02297 3.5577,3.36529 -0.13665,0.15158 -0.055,0.16452 0.18135,0.0288 0.5509,-0.31642 8.03858,6.905175 8.91729,8.600395 0.352,0.6791 1.25041,1.89311 1.99646,2.69781 1.8874,2.03575 4.52757,6.60405 5.23954,9.06598 0.92175,3.18736 0.95428,6.36603 0.0919,8.97887 -0.46346,1.40414 -1.00527,2.36058 -1.47221,2.59884 -0.40637,0.20736 -1.37386,0.96519 -2.14997,1.68407 -1.50991,1.39857 -4.04771,2.67057 -4.81671,2.41423 -0.25776,-0.0859 -0.67985,0.055 -0.93798,0.3131 -0.25813,0.25813 -0.92486,0.46933 -1.48163,0.46933 -0.55678,0 -1.11712,0.16957 -1.24521,0.37682 -0.12809,0.20726 -0.44988,0.29357 -0.71508,0.1918 -0.2652,-0.10177 -0.57601,-0.0332 -0.69069,0.15234 -0.11468,0.18555 -0.75413,0.33737 -1.42101,0.33737 -0.66687,0 -2.16253,0.32878 -3.32369,0.73062 -1.22811,0.42502 -2.29853,0.60947 -2.55904,0.44098 -0.62192,-0.40224 -2.15959,-0.36283 -2.46315,0.0631 -0.13828,0.19403 -1.2888,0.35278 -2.55671,0.35278 -1.26791,0 -2.30572,0.13105 -2.30623,0.29123 -3.5e-4,0.16017 -0.68208,0.24934 -1.51461,0.19814 -0.83253,-0.0512 -1.73017,0.0407 -1.99475,0.20423 -0.53737,0.33212 -28.68936,0.68128 -29.01083,0.35983 z m 15.93871,-31.14948 c 0,-0.15749 -0.3048,-1.46718 -0.67734,-2.91042 -0.65666,-2.54396 -1.56368,-7.146925 -1.97691,-10.032415 -0.11114,-0.77611 -0.28795,-1.64923 -0.39291,-1.94027 -0.10496,-0.29105 -0.25222,-0.92605 -0.32724,-1.41111 -0.075,-0.48507 -0.31742,-1.91628 -0.53865,-3.18047 l -0.40223,-2.29851 -2.69306,-0.77624 c -1.48118,-0.42692 -3.24868,-0.87912 -3.92777,-1.00487 -0.6791,-0.12575 -1.79035,-0.47652 -2.46945,-0.77949 -0.67909,-0.30297 -1.47284,-0.58148 -1.76389,-0.6189 -0.29104,-0.0374 -2.03729,-0.32297 -3.88055,-0.63456 -1.84327,-0.31159 -4.6095,-0.66293 -6.1472,-0.78076 l -2.7958,-0.21424 1.06708,1.21534 c 0.5869,0.66844 1.87334,2.01736 2.85876,2.99761 1.19109,1.18485 1.74053,1.99917 1.63912,2.42937 -0.098,0.41582 0.19471,0.89341 0.819,1.33623 0.76971,0.54597 0.87095,0.56429 0.48737,0.0882 -0.26629,-0.33052 -0.34332,-0.60094 -0.17118,-0.60094 0.55083,0 3.48149,3.2533 3.37521,3.74679 -0.0591,0.27447 0.0983,0.39825 0.37272,0.29297 0.5122,-0.19655 3.08103,2.43272 3.08103,3.15352 0,0.23814 0.23851,0.74114 0.53003,1.11777 0.44184,0.57084 0.49426,0.58206 0.31504,0.0674 -0.29278,-0.84071 0.41083,-0.78184 1.01811,0.0852 0.27065,0.3864 1.13929,1.17138 1.93032,1.7444 0.79104,0.57303 1.54078,1.36491 1.6661,1.75974 0.12531,0.39483 0.34061,0.68142 0.47844,0.63685 0.29158,-0.0943 3.62868,2.530685 4.04546,3.182165 0.15516,0.24253 0.44942,0.44097 0.6539,0.44097 0.20448,0 1.02454,0.71438 1.82234,1.5875 1.38876,1.51987 2.00415,1.9194 2.00415,1.30117 z m -22.04861,-19.469215 c -0.11992,-0.19403 -0.0499,-0.35278 0.15557,-0.35278 0.20547,0 0.37359,0.15875 0.37359,0.35278 0,0.19402 -0.07,0.35277 -0.15556,0.35277 -0.0856,0 -0.25369,-0.15875 -0.3736,-0.35277 z"
         inkscape:connector-curvature="0" />
    </g>
    <path
       inkscape:export-ydpi="100"
       inkscape:export-xdpi="100"
       inkscape:export-filename="/media/dados/trampos/joana/recursos/imgs/logo2.png"
       id="path6573"
       d="m 7.047629,108.53792 c -1.65781,-0.0637 -10.31786,-0.23155 -20.934191,-0.0831 -7.279423,0.10182 -14.055117,-0.26932 -23.284487,0.11364 -11.74287,0.48725 -21.799764,-0.13662 -23.573862,-0.21321 -4.456332,-0.19238 -8.893056,0.13055 -13.386758,0.22627 -4.053998,0.0864 -8.214846,-0.11613 -12.376121,0.19747 -4.206625,0.317 -8.551709,-2.3e-4 -13.064882,-0.13655 -2.622158,0.003 -2.957198,-0.0177 -2.962938,2.06815 0.2537,2.08027 0.20246,4.00806 0,5.86025"
       style="display:inline;fill:none;stroke:#000000;stroke-width:1.7907815;stroke-linecap:round;stroke-linejoin:round;stroke-miterlimit:4;stroke-dasharray:none;stroke-opacity:1"
       inkscape:connector-curvature="0"
       sodipodi:nodetypes="csssscccc" />
    <path
       sodipodi:nodetypes="csssscccc"
       inkscape:connector-curvature="0"
       style="display:inline;fill:none;stroke:#000000;stroke-width:1.7907815;stroke-linecap:round;stroke-linejoin:round;stroke-miterlimit:4;stroke-dasharray:none;stroke-opacity:1"
       d="m 124.4881,108.53792 c 1.65781,-0.0637 10.31785,-0.23155 20.93418,-0.0831 7.27942,0.10182 14.05512,-0.26932 23.2845,0.11364 11.74287,0.48725 21.79976,-0.13662 23.57385,-0.21321 4.45632,-0.19238 8.89307,0.13055 13.38675,0.22627 4.054,0.0864 8.21486,-0.11613 12.37612,0.19747 4.20664,0.317 8.55171,-2.3e-4 13.06489,-0.13655 2.62215,0.003 2.9572,-0.0177 2.96294,2.06815 -0.25371,2.08027 -0.20246,4.00806 0,5.86025"
       id="path421"
       inkscape:export-filename="/media/dados/trampos/joana/recursos/imgs/logo2.png"
       inkscape:export-xdpi="100"
       inkscape:export-ydpi="100" />
  </g>
</svg>
